<svg width="1920" height="1080" xmlns="http://www.w3.org/2000/svg" viewBox="0 0 1920 1080">
<defs>
  <radialGradient id="bg" cx="50%" cy="50%" r="70%">
    <stop offset="0%" stop-color="#0f2035"/><stop offset="100%" stop-color="#050d18"/>
  </radialGradient>
  <linearGradient id="goldH" x1="0" y1="0" x2="1" y2="0">
    <stop offset="0%" stop-color="#604808"/><stop offset="35%" stop-color="#c89b3c"/>
    <stop offset="65%" stop-color="#c89b3c"/><stop offset="100%" stop-color="#604808"/>
  </linearGradient>
  <linearGradient id="purH" x1="0" y1="0" x2="1" y2="0">
    <stop offset="0%" stop-color="#281050"/><stop offset="35%" stop-color="#7050c0"/>
    <stop offset="65%" stop-color="#7050c0"/><stop offset="100%" stop-color="#281050"/>
  </linearGradient>
  <linearGradient id="bf0Grad" x1="0" y1="0" x2="0" y2="1">
    <stop offset="0%" stop-color="#081828"/><stop offset="50%" stop-color="#0c2240"/><stop offset="100%" stop-color="#081828"/>
  </linearGradient>
  <linearGradient id="bf1Grad" x1="0" y1="0" x2="0" y2="1">
    <stop offset="0%" stop-color="#081820"/><stop offset="50%" stop-color="#0a2030"/><stop offset="100%" stop-color="#081820"/>
  </linearGradient>
  <filter id="glow" x="-20%" y="-20%" width="140%" height="140%">
    <feGaussianBlur stdDeviation="2.5" result="blur"/>
    <feMerge><feMergeNode in="blur"/><feMergeNode in="SourceGraphic"/></feMerge>
  </filter>
  <filter id="softglow">
    <feGaussianBlur stdDeviation="4" result="blur"/>
    <feMerge><feMergeNode in="blur"/><feMergeNode in="SourceGraphic"/></feMerge>
  </filter>
  <linearGradient id="pillarBorder" x1="0" y1="0" x2="0" y2="1">
    <stop offset="0%" stop-color="#c89b3c"/><stop offset="25%" stop-color="#7050c0"/>
    <stop offset="50%" stop-color="#3070d0"/><stop offset="75%" stop-color="#7050c0"/>
    <stop offset="100%" stop-color="#c89b3c"/>
  </linearGradient>
  <linearGradient id="pillarFill" x1="0" y1="1" x2="0" y2="0">
    <stop offset="0%" stop-color="#1848c0"/><stop offset="50%" stop-color="#6030d0"/>
    <stop offset="100%" stop-color="#c040f0" stop-opacity="0.4"/>
  </linearGradient>
  <clipPath id="pillarClip"><rect x="948" y="404" width="24" height="260"/></clipPath>
</defs>

<rect width="1920" height="1080" fill="url(#bg)"/>
<g opacity="0.04" transform="translate(960,534)">
  <circle r="240" fill="none" stroke="#4090d0" stroke-width="4"/>
  <circle r="170" fill="none" stroke="#4090d0" stroke-width="2"/>
  <circle r="90" fill="none" stroke="#4090d0" stroke-width="1"/>
  <line x1="-280" y1="0" x2="280" y2="0" stroke="#4090d0" stroke-width="1"/>
  <line x1="0" y1="-280" x2="0" y2="280" stroke="#4090d0" stroke-width="1"/>
</g>
<rect x="1" y="1" width="1918" height="1078" fill="none" stroke="#c89b3c" stroke-width="1" opacity="0.2"/>

<!-- LEFT SCORE STRIP -->
<rect x="0" y="0" width="44" height="1080" fill="#040c14"/>
<line x1="43" y1="0" x2="43" y2="1080" stroke="#c89b3c" stroke-width="1" opacity="0.3"/>
<text x="22" y="14" fill="#c89b3c" font-size="7" text-anchor="middle" font-family="Arial" opacity="0.4" letter-spacing="1">SCORE</text>
<line x1="4" y1="534" x2="40" y2="534" stroke="#c89b3c" stroke-width="1" opacity="0.4"/>
<circle cx="22" cy="28" r="11" fill="none" stroke="#c89b3c" stroke-width="1.8" opacity="0.92"/>
<text x="22" y="32" fill="#c89b3c" font-size="11" text-anchor="middle" font-family="Arial" font-weight="bold">8</text>
<circle cx="22" cy="72" r="11" fill="none" stroke="#c89b3c" stroke-width="1.4" opacity="0.85"/>
<text x="22" y="76" fill="#c89b3c" font-size="11" text-anchor="middle" font-family="Arial" font-weight="bold">7</text>
<circle cx="22" cy="116" r="11" fill="none" stroke="#c89b3c" stroke-width="1.4" opacity="0.78"/>
<text x="22" y="120" fill="#c89b3c" font-size="11" text-anchor="middle" font-family="Arial">6</text>
<circle cx="22" cy="160" r="11" fill="none" stroke="#c89b3c" stroke-width="1.1" opacity="0.71"/>
<text x="22" y="164" fill="#c89b3c" font-size="11" text-anchor="middle" font-family="Arial">5</text>
<circle cx="22" cy="204" r="11" fill="none" stroke="#c89b3c" stroke-width="1.1" opacity="0.64"/>
<text x="22" y="208" fill="#c89b3c" font-size="11" text-anchor="middle" font-family="Arial">4</text>
<circle cx="22" cy="248" r="11" fill="none" stroke="#c89b3c" stroke-width="1.1" opacity="0.57"/>
<text x="22" y="252" fill="#c89b3c" font-size="11" text-anchor="middle" font-family="Arial">3</text>
<circle cx="22" cy="292" r="11" fill="none" stroke="#c89b3c" stroke-width="1.1" opacity="0.50"/>
<text x="22" y="296" fill="#c89b3c" font-size="11" text-anchor="middle" font-family="Arial">2</text>
<circle cx="22" cy="336" r="11" fill="none" stroke="#c89b3c" stroke-width="1.1" opacity="0.43"/>
<text x="22" y="340" fill="#c89b3c" font-size="11" text-anchor="middle" font-family="Arial">1</text>
<circle cx="22" cy="380" r="11" fill="#132030" stroke="#c89b3c" stroke-width="1.1" opacity="0.38"/>
<text x="22" y="384" fill="#c89b3c" font-size="11" text-anchor="middle" font-family="Arial">0</text>
<circle cx="22" cy="686" r="11" fill="none" stroke="#c89b3c" stroke-width="1.8" opacity="0.92"/>
<text x="22" y="690" fill="#c89b3c" font-size="11" text-anchor="middle" font-family="Arial" font-weight="bold">8</text>
<circle cx="22" cy="730" r="11" fill="none" stroke="#c89b3c" stroke-width="1.4" opacity="0.85"/>
<text x="22" y="734" fill="#c89b3c" font-size="11" text-anchor="middle" font-family="Arial" font-weight="bold">7</text>
<circle cx="22" cy="774" r="11" fill="none" stroke="#c89b3c" stroke-width="1.4" opacity="0.78"/>
<text x="22" y="778" fill="#c89b3c" font-size="11" text-anchor="middle" font-family="Arial">6</text>
<circle cx="22" cy="818" r="11" fill="none" stroke="#c89b3c" stroke-width="1.1" opacity="0.71"/>
<text x="22" y="822" fill="#c89b3c" font-size="11" text-anchor="middle" font-family="Arial">5</text>
<circle cx="22" cy="862" r="11" fill="none" stroke="#c89b3c" stroke-width="1.1" opacity="0.64"/>
<text x="22" y="866" fill="#c89b3c" font-size="11" text-anchor="middle" font-family="Arial">4</text>
<circle cx="22" cy="906" r="11" fill="none" stroke="#c89b3c" stroke-width="1.1" opacity="0.57"/>
<text x="22" y="910" fill="#c89b3c" font-size="11" text-anchor="middle" font-family="Arial">3</text>
<circle cx="22" cy="950" r="11" fill="none" stroke="#c89b3c" stroke-width="1.1" opacity="0.50"/>
<text x="22" y="954" fill="#c89b3c" font-size="11" text-anchor="middle" font-family="Arial">2</text>
<circle cx="22" cy="994" r="11" fill="none" stroke="#c89b3c" stroke-width="1.1" opacity="0.43"/>
<text x="22" y="998" fill="#c89b3c" font-size="11" text-anchor="middle" font-family="Arial">1</text>
<circle cx="22" cy="1038" r="11" fill="#132030" stroke="#c89b3c" stroke-width="1.1" opacity="0.38"/>
<text x="22" y="1042" fill="#c89b3c" font-size="11" text-anchor="middle" font-family="Arial">0</text>

<!-- LEFT DECKS -->
<rect x="75" y="8" width="139" height="195" fill="#0a1620" stroke="#c89b3c" stroke-width="1.5" rx="4"/>
<rect x="81" y="16" width="127" height="179" fill="#081420" stroke="#c89b3c" stroke-width="1.5" rx="3"/>
<rect x="84" y="19" width="121" height="173" fill="none" stroke="#c89b3c30" stroke-width="1" rx="2"/>
<text x="144" y="55" fill="#c89b3c" font-size="13" font-family="Arial" font-weight="bold" text-anchor="middle">主牌堆</text>
<text x="144" y="71" fill="#c89b3c70" font-size="9" font-family="Arial" text-anchor="middle">MAIN DECK</text>
<text x="144" y="137" fill="#d4c090" font-size="38" font-family="Arial" font-weight="bold" text-anchor="middle">30</text>
<rect x="75" y="207" width="139" height="195" fill="#0a1620" stroke="#7050c0" stroke-width="1.5" rx="4"/>
<rect x="81" y="215" width="127" height="179" fill="#080e20" stroke="#8060d0" stroke-width="1.5" rx="3"/>
<rect x="84" y="218" width="121" height="173" fill="none" stroke="#8060d030" stroke-width="1" rx="2"/>
<text x="144" y="254" fill="#7050c0" font-size="13" font-family="Arial" font-weight="bold" text-anchor="middle">符文堆</text>
<text x="144" y="270" fill="#7050c070" font-size="9" font-family="Arial" text-anchor="middle">RUNE DECK</text>
<text x="144" y="336" fill="#b090f0" font-size="38" font-family="Arial" font-weight="bold" text-anchor="middle">10</text>
<rect x="75" y="666" width="139" height="195" fill="#0a1620" stroke="#7050c0" stroke-width="1.5" rx="4"/>
<rect x="81" y="674" width="127" height="179" fill="#080e20" stroke="#8060d0" stroke-width="1.5" rx="3"/>
<rect x="84" y="677" width="121" height="173" fill="none" stroke="#8060d030" stroke-width="1" rx="2"/>
<text x="144" y="713" fill="#7050c0" font-size="13" font-family="Arial" font-weight="bold" text-anchor="middle">符文堆</text>
<text x="144" y="729" fill="#7050c070" font-size="9" font-family="Arial" text-anchor="middle">RUNE DECK</text>
<text x="144" y="795" fill="#b090f0" font-size="38" font-family="Arial" font-weight="bold" text-anchor="middle">10</text>
<rect x="75" y="865" width="139" height="195" fill="#0a1620" stroke="#c89b3c" stroke-width="1.5" rx="4"/>
<rect x="81" y="873" width="127" height="179" fill="#081420" stroke="#c89b3c" stroke-width="1.5" rx="3"/>
<rect x="84" y="876" width="121" height="173" fill="none" stroke="#c89b3c30" stroke-width="1" rx="2"/>
<text x="144" y="912" fill="#c89b3c" font-size="13" font-family="Arial" font-weight="bold" text-anchor="middle">主牌堆</text>
<text x="144" y="928" fill="#c89b3c70" font-size="9" font-family="Arial" text-anchor="middle">MAIN DECK</text>
<text x="144" y="994" fill="#d4c090" font-size="38" font-family="Arial" font-weight="bold" text-anchor="middle">30</text>

<!-- RIGHT DECKS -->
<rect x="1703" y="8" width="139" height="195" fill="#0a1620" stroke="#c89b3c" stroke-width="1.5" rx="4"/>
<rect x="1709" y="16" width="127" height="179" fill="#081420" stroke="#c89b3c" stroke-width="1.5" rx="3"/>
<rect x="1712" y="19" width="121" height="173" fill="none" stroke="#c89b3c30" stroke-width="1" rx="2"/>
<text x="1772" y="55" fill="#c89b3c" font-size="13" font-family="Arial" font-weight="bold" text-anchor="middle">弃牌</text>
<text x="1772" y="71" fill="#c89b3c70" font-size="9" font-family="Arial" text-anchor="middle">DISCARD</text>
<text x="1772" y="137" fill="#d4c090" font-size="38" font-family="Arial" font-weight="bold" text-anchor="middle">0</text>
<rect x="1703" y="207" width="139" height="195" fill="#0a1620" stroke="#c89b3c" stroke-width="1.5" rx="4"/>
<rect x="1709" y="215" width="127" height="179" fill="#0a1420" stroke="#c89b3c" stroke-width="1.5" rx="3"/>
<rect x="1712" y="218" width="121" height="173" fill="none" stroke="#c89b3c30" stroke-width="1" rx="2"/>
<text x="1772" y="254" fill="#c89b3c" font-size="13" font-family="Arial" font-weight="bold" text-anchor="middle">放逐区</text>
<text x="1772" y="270" fill="#c89b3c70" font-size="9" font-family="Arial" text-anchor="middle">EXILE</text>
<text x="1772" y="336" fill="#d4c090" font-size="38" font-family="Arial" font-weight="bold" text-anchor="middle">0</text>
<rect x="1703" y="666" width="139" height="195" fill="#0a1620" stroke="#c89b3c" stroke-width="1.5" rx="4"/>
<rect x="1709" y="674" width="127" height="179" fill="#0a1420" stroke="#c89b3c" stroke-width="1.5" rx="3"/>
<rect x="1712" y="677" width="121" height="173" fill="none" stroke="#c89b3c30" stroke-width="1" rx="2"/>
<text x="1772" y="713" fill="#c89b3c" font-size="13" font-family="Arial" font-weight="bold" text-anchor="middle">放逐区</text>
<text x="1772" y="729" fill="#c89b3c70" font-size="9" font-family="Arial" text-anchor="middle">EXILE</text>
<text x="1772" y="795" fill="#d4c090" font-size="38" font-family="Arial" font-weight="bold" text-anchor="middle">0</text>
<rect x="1703" y="865" width="139" height="195" fill="#0a1620" stroke="#c89b3c" stroke-width="1.5" rx="4"/>
<rect x="1709" y="873" width="127" height="179" fill="#081420" stroke="#c89b3c" stroke-width="1.5" rx="3"/>
<rect x="1712" y="876" width="121" height="173" fill="none" stroke="#c89b3c30" stroke-width="1" rx="2"/>
<text x="1772" y="912" fill="#c89b3c" font-size="13" font-family="Arial" font-weight="bold" text-anchor="middle">弃牌</text>
<text x="1772" y="928" fill="#c89b3c70" font-size="9" font-family="Arial" text-anchor="middle">DISCARD</text>
<text x="1772" y="994" fill="#d4c090" font-size="38" font-family="Arial" font-weight="bold" text-anchor="middle">0</text>

<!-- ENEMY HERO ROW y=8 h=145 -->
<rect x="252" y="27" width="76" height="106" fill="#101828" stroke="#d4a828" stroke-width="2" rx="5" filter="url(#glow)"/>
<rect x="256" y="31" width="68" height="98" fill="#080e1e" stroke="#d4a82860" stroke-width="1" rx="3" stroke-dasharray="3,2"/>
<text x="290" y="76" fill="#d4a828" font-size="11" font-family="Arial" font-weight="bold" text-anchor="middle">英雄</text>
<text x="290" y="88" fill="#d4a82890" font-size="8" font-family="Arial" text-anchor="middle">CHAMPION</text>
<rect x="340" y="27" width="76" height="106" fill="#101828" stroke="#c89b3c" stroke-width="2" rx="5" filter="url(#glow)"/>
<rect x="344" y="31" width="68" height="98" fill="#080e1e" stroke="#c89b3c60" stroke-width="1" rx="3" stroke-dasharray="3,2"/>
<text x="378" y="76" fill="#c89b3c" font-size="11" font-family="Arial" font-weight="bold" text-anchor="middle">传说</text>
<text x="378" y="88" fill="#c89b3c90" font-size="8" font-family="Arial" text-anchor="middle">LEGEND</text>
<rect x="344" y="123" width="68" height="8" fill="#201008" stroke="#c89b3c" stroke-width="1" rx="3"/>
<text x="378" y="129" fill="#c89b3c" font-size="7" text-anchor="middle" font-family="Arial">技 能</text>

<!-- ENEMY HAND FAN -->
<text x="960" y="22" fill="#c89b3c" font-size="9" text-anchor="middle" font-family="Arial" opacity="0.45" letter-spacing="2">HAND · 敌方手牌</text>
<g transform="rotate(14, 960, -1100)">
  <rect x="905" y="-90" width="110" height="154" fill="#0c1624" stroke="#c89b3c45" stroke-width="1.2" rx="4"/>
  <line x1="919" y1="-76" x2="1001" y2="50" stroke="#c89b3c18" stroke-width="1"/>
  <line x1="1001" y1="-76" x2="919" y2="50" stroke="#c89b3c18" stroke-width="1"/>
</g>
<g transform="rotate(-14, 960, -1100)">
  <rect x="905" y="-90" width="110" height="154" fill="#0c1624" stroke="#c89b3c45" stroke-width="1.2" rx="4"/>
  <line x1="919" y1="-76" x2="1001" y2="50" stroke="#c89b3c18" stroke-width="1"/>
  <line x1="1001" y1="-76" x2="919" y2="50" stroke="#c89b3c18" stroke-width="1"/>
</g>
<g transform="rotate(9, 960, -1100)">
  <rect x="905" y="-90" width="110" height="154" fill="#0c1624" stroke="#c89b3c58" stroke-width="1.3" rx="4"/>
  <line x1="919" y1="-76" x2="1001" y2="50" stroke="#c89b3c18" stroke-width="1"/>
  <line x1="1001" y1="-76" x2="919" y2="50" stroke="#c89b3c18" stroke-width="1"/>
</g>
<g transform="rotate(-9, 960, -1100)">
  <rect x="905" y="-90" width="110" height="154" fill="#0c1624" stroke="#c89b3c58" stroke-width="1.3" rx="4"/>
  <line x1="919" y1="-76" x2="1001" y2="50" stroke="#c89b3c18" stroke-width="1"/>
  <line x1="1001" y1="-76" x2="919" y2="50" stroke="#c89b3c18" stroke-width="1"/>
</g>
<g transform="rotate(5, 960, -1100)">
  <rect x="905" y="-90" width="110" height="154" fill="#0c1624" stroke="#c89b3c72" stroke-width="1.4" rx="4"/>
  <line x1="919" y1="-76" x2="1001" y2="50" stroke="#c89b3c18" stroke-width="1"/>
  <line x1="1001" y1="-76" x2="919" y2="50" stroke="#c89b3c18" stroke-width="1"/>
</g>
<g transform="rotate(-5, 960, -1100)">
  <rect x="905" y="-90" width="110" height="154" fill="#0c1624" stroke="#c89b3c72" stroke-width="1.4" rx="4"/>
  <line x1="919" y1="-76" x2="1001" y2="50" stroke="#c89b3c18" stroke-width="1"/>
  <line x1="1001" y1="-76" x2="919" y2="50" stroke="#c89b3c18" stroke-width="1"/>
</g>
<g transform="rotate(0, 960, -1100)">
  <rect x="905" y="-90" width="110" height="154" fill="#0c1624" stroke="#c89b3cee" stroke-width="1.6" rx="4"/>
  <line x1="919" y1="-76" x2="1001" y2="50" stroke="#c89b3c18" stroke-width="1"/>
  <line x1="1001" y1="-76" x2="919" y2="50" stroke="#c89b3c18" stroke-width="1"/>
</g>

<!-- ENEMY RUNES y=155 h=85 -->
<rect x="248" y="155" width="1424" height="85" fill="#0c1030" rx="4"/>
<rect x="248" y="155" width="1424" height="85" fill="none" stroke="url(#purH)" stroke-width="2" rx="4"/>
<text x="258" y="171" fill="#9070e0" font-size="11" font-family="Arial" font-weight="bold" letter-spacing="2" filter="url(#glow)">RUNES  符文区</text>
<circle cx="817" cy="197" r="24" fill="#0c0e22" stroke="#7050c0" stroke-width="1.5"/>
<circle cx="843" cy="197" r="24" fill="#0c0e22" stroke="#7050c0" stroke-width="1.5"/>
<circle cx="869" cy="197" r="24" fill="#0c0e22" stroke="#7050c0" stroke-width="1.5"/>
<circle cx="895" cy="197" r="24" fill="#0c0e22" stroke="#7050c0" stroke-width="1.5"/>
<circle cx="921" cy="197" r="24" fill="#0c0e22" stroke="#7050c0" stroke-width="1.5"/>
<circle cx="947" cy="197" r="24" fill="#0c0e22" stroke="#7050c0" stroke-width="1.5"/>
<circle cx="973" cy="197" r="24" fill="#0c0e22" stroke="#7050c0" stroke-width="1.5"/>
<circle cx="999" cy="197" r="24" fill="#0c0e22" stroke="#7050c0" stroke-width="1.5"/>
<circle cx="1025" cy="197" r="24" fill="#0a0c1c" stroke="#403080" stroke-width="1" stroke-dasharray="4,2" opacity="0.5"/>
<circle cx="1051" cy="197" r="24" fill="#0a0c1c" stroke="#403080" stroke-width="1" stroke-dasharray="4,2" opacity="0.5"/>
<circle cx="1077" cy="197" r="24" fill="#0a0c1c" stroke="#403080" stroke-width="1" stroke-dasharray="4,2" opacity="0.5"/>
<circle cx="1103" cy="197" r="24" fill="#0a0c1c" stroke="#403080" stroke-width="1" stroke-dasharray="4,2" opacity="0.5"/>

<!-- ENEMY BASE y=242 h=160 -->
<rect x="248" y="242" width="1424" height="160" fill="#0e1c28" rx="4"/>
<rect x="248" y="242" width="1424" height="160" fill="none" stroke="url(#goldH)" stroke-width="2" rx="4"/>
<text x="258" y="258" fill="#c89b3c" font-size="11" font-family="Arial" font-weight="bold" letter-spacing="2" filter="url(#glow)">BASE  基地</text>
<rect x="644" y="272" width="72" height="100" fill="#0a1620" stroke="#c89b3c" stroke-width="1" rx="3" stroke-dasharray="4,2"/>
<rect x="724" y="272" width="72" height="100" fill="#0a1620" stroke="#c89b3c" stroke-width="1" rx="3" stroke-dasharray="4,2"/>
<rect x="804" y="272" width="72" height="100" fill="#0a1620" stroke="#c89b3c" stroke-width="1" rx="3" stroke-dasharray="4,2"/>
<rect x="884" y="272" width="72" height="100" fill="#0a1620" stroke="#c89b3c" stroke-width="1" rx="3" stroke-dasharray="4,2"/>
<rect x="964" y="272" width="72" height="100" fill="#0a1620" stroke="#c89b3c" stroke-width="1" rx="3" stroke-dasharray="4,2"/>
<rect x="1044" y="272" width="72" height="100" fill="#0a1620" stroke="#c89b3c" stroke-width="1" rx="3" stroke-dasharray="4,2"/>
<rect x="1124" y="272" width="72" height="100" fill="#0a1620" stroke="#c89b3c" stroke-width="1" rx="3" stroke-dasharray="4,2"/>
<rect x="1204" y="272" width="72" height="100" fill="#0a1028" stroke="#4060a0" stroke-width="1.5" rx="3" stroke-dasharray="3,2"/>
<text x="1240" y="326" fill="#4060a0" font-size="9" text-anchor="middle" font-family="Arial" opacity="0.8">待命</text>

<!-- BATTLEFIELD y=404 h=260 center=534 -->
<rect x="48" y="404" width="896" height="260" fill="url(#bf0Grad)" rx="6"/>
<rect x="48" y="404" width="896" height="260" fill="none" stroke="#4080b0" stroke-width="2.5" rx="6" filter="url(#glow)"/>
<rect x="976" y="404" width="894" height="260" fill="url(#bf1Grad)" rx="6"/>
<rect x="976" y="404" width="894" height="260" fill="none" stroke="#3070a0" stroke-width="2.5" rx="6" filter="url(#glow)"/>
<text x="889" y="432" fill="#4080b0" font-size="13" text-anchor="middle" font-family="Arial" font-weight="bold" filter="url(#softglow)">战场 ①</text>
<rect x="853" y="438" width="72" height="52" fill="#0c1828" stroke="#c89b3c" stroke-width="1.5" rx="3"/>
<text x="1031" y="432" fill="#3070a0" font-size="13" text-anchor="middle" font-family="Arial" font-weight="bold" filter="url(#softglow)">战场 ②</text>
<rect x="995" y="438" width="72" height="52" fill="#0c1828" stroke="#c89b3c" stroke-width="1.5" rx="3"/>
<rect x="853" y="552" width="72" height="100" fill="#0a0e1c" stroke="#4060a0" stroke-width="1.5" rx="3"/>
<rect x="857" y="556" width="64" height="92" fill="none" stroke="#4060a060" stroke-width="1" rx="2" stroke-dasharray="3,2"/>
<text x="889" y="606" fill="#4060a0" font-size="10" text-anchor="middle" font-family="Arial" font-weight="bold">待命区</text>
<rect x="995" y="552" width="72" height="100" fill="#0a0e1c" stroke="#4060a0" stroke-width="1.5" rx="3"/>
<rect x="999" y="556" width="64" height="92" fill="none" stroke="#4060a060" stroke-width="1" rx="2" stroke-dasharray="3,2"/>
<text x="1031" y="606" fill="#4060a0" font-size="10" text-anchor="middle" font-family="Arial" font-weight="bold">待命区</text>
<line x1="56" y1="538" x2="830" y2="538" stroke="#2a5888" stroke-width="1.5" stroke-dasharray="20,8" opacity="0.7"/>
<line x1="1090" y1="538" x2="1862" y2="538" stroke="#2a5888" stroke-width="1.5" stroke-dasharray="20,8" opacity="0.7"/>
<rect x="94" y="416" width="76" height="106" fill="#091828" stroke="#3a6090" stroke-width="1" rx="3" stroke-dasharray="4,2"/>
<rect x="94" y="546" width="76" height="106" fill="#0a1c2c" stroke="#4090b0" stroke-width="1" rx="3" stroke-dasharray="4,2"/>
<rect x="186" y="416" width="76" height="106" fill="#091828" stroke="#3a6090" stroke-width="1" rx="3" stroke-dasharray="4,2"/>
<rect x="186" y="546" width="76" height="106" fill="#0a1c2c" stroke="#4090b0" stroke-width="1" rx="3" stroke-dasharray="4,2"/>
<rect x="278" y="416" width="76" height="106" fill="#091828" stroke="#3a6090" stroke-width="1" rx="3" stroke-dasharray="4,2"/>
<rect x="278" y="546" width="76" height="106" fill="#0a1c2c" stroke="#4090b0" stroke-width="1" rx="3" stroke-dasharray="4,2"/>
<rect x="370" y="416" width="76" height="106" fill="#091828" stroke="#3a6090" stroke-width="1" rx="3" stroke-dasharray="4,2"/>
<rect x="370" y="546" width="76" height="106" fill="#0a1c2c" stroke="#4090b0" stroke-width="1" rx="3" stroke-dasharray="4,2"/>
<rect x="462" y="416" width="76" height="106" fill="#091828" stroke="#3a6090" stroke-width="1" rx="3" stroke-dasharray="4,2"/>
<rect x="462" y="546" width="76" height="106" fill="#0a1c2c" stroke="#4090b0" stroke-width="1" rx="3" stroke-dasharray="4,2"/>
<rect x="554" y="416" width="76" height="106" fill="#091828" stroke="#3a6090" stroke-width="1" rx="3" stroke-dasharray="4,2"/>
<rect x="554" y="546" width="76" height="106" fill="#0a1c2c" stroke="#4090b0" stroke-width="1" rx="3" stroke-dasharray="4,2"/>
<rect x="646" y="416" width="76" height="106" fill="#091828" stroke="#3a6090" stroke-width="1" rx="3" stroke-dasharray="4,2"/>
<rect x="646" y="546" width="76" height="106" fill="#0a1c2c" stroke="#4090b0" stroke-width="1" rx="3" stroke-dasharray="4,2"/>
<rect x="738" y="416" width="76" height="106" fill="#091828" stroke="#3a6090" stroke-width="1" rx="3" stroke-dasharray="4,2"/>
<rect x="738" y="546" width="76" height="106" fill="#0a1c2c" stroke="#4090b0" stroke-width="1" rx="3" stroke-dasharray="4,2"/>
<rect x="988" y="416" width="76" height="106" fill="#091828" stroke="#3a6090" stroke-width="1" rx="3" stroke-dasharray="4,2"/>
<rect x="988" y="546" width="76" height="106" fill="#0a1c2c" stroke="#4090b0" stroke-width="1" rx="3" stroke-dasharray="4,2"/>
<rect x="1080" y="416" width="76" height="106" fill="#091828" stroke="#3a6090" stroke-width="1" rx="3" stroke-dasharray="4,2"/>
<rect x="1080" y="546" width="76" height="106" fill="#0a1c2c" stroke="#4090b0" stroke-width="1" rx="3" stroke-dasharray="4,2"/>
<rect x="1172" y="416" width="76" height="106" fill="#091828" stroke="#3a6090" stroke-width="1" rx="3" stroke-dasharray="4,2"/>
<rect x="1172" y="546" width="76" height="106" fill="#0a1c2c" stroke="#4090b0" stroke-width="1" rx="3" stroke-dasharray="4,2"/>
<rect x="1264" y="416" width="76" height="106" fill="#091828" stroke="#3a6090" stroke-width="1" rx="3" stroke-dasharray="4,2"/>
<rect x="1264" y="546" width="76" height="106" fill="#0a1c2c" stroke="#4090b0" stroke-width="1" rx="3" stroke-dasharray="4,2"/>
<rect x="1356" y="416" width="76" height="106" fill="#091828" stroke="#3a6090" stroke-width="1" rx="3" stroke-dasharray="4,2"/>
<rect x="1356" y="546" width="76" height="106" fill="#0a1c2c" stroke="#4090b0" stroke-width="1" rx="3" stroke-dasharray="4,2"/>
<rect x="1448" y="416" width="76" height="106" fill="#091828" stroke="#3a6090" stroke-width="1" rx="3" stroke-dasharray="4,2"/>
<rect x="1448" y="546" width="76" height="106" fill="#0a1c2c" stroke="#4090b0" stroke-width="1" rx="3" stroke-dasharray="4,2"/>
<rect x="1540" y="416" width="76" height="106" fill="#091828" stroke="#3a6090" stroke-width="1" rx="3" stroke-dasharray="4,2"/>
<rect x="1540" y="546" width="76" height="106" fill="#0a1c2c" stroke="#4090b0" stroke-width="1" rx="3" stroke-dasharray="4,2"/>
<rect x="1632" y="416" width="76" height="106" fill="#091828" stroke="#3a6090" stroke-width="1" rx="3" stroke-dasharray="4,2"/>
<rect x="1632" y="546" width="76" height="106" fill="#0a1c2c" stroke="#4090b0" stroke-width="1" rx="3" stroke-dasharray="4,2"/>

<rect x="944" y="404" width="32" height="260" fill="#030810"/>
<polygon points="952,404 968,404 976,412 960,420 944,412" fill="#120c20" stroke="url(#pillarBorder)" stroke-width="1"/>
<polygon points="952,664 968,664 976,656 960,648 944,656" fill="#120c20" stroke="url(#pillarBorder)" stroke-width="1"/>
<rect x="944" y="412" width="32" height="244" fill="none" stroke="url(#pillarBorder)" stroke-width="1.5"/>
<rect x="948" y="474" width="24" height="120" fill="url(#pillarFill)" clip-path="url(#pillarClip)" opacity="0.8" rx="2"/>
<rect x="944" y="471" width="32" height="5" fill="#5090ff" opacity="0.7" rx="1" filter="url(#glow)"/>
<text x="960" y="430" fill="#c89b3c" font-size="9" text-anchor="middle" font-family="Arial" opacity="0.5">+</text>
<text x="960" y="539" fill="#7090c0" font-size="7" text-anchor="middle" font-family="Arial" opacity="0.6">o</text>
<text x="960" y="399" fill="#c84040" font-size="6.5" text-anchor="middle" font-family="Arial" opacity="0.7" letter-spacing="1">对方 下</text>
<text x="960" y="674" fill="#40c070" font-size="6.5" text-anchor="middle" font-family="Arial" opacity="0.7" letter-spacing="1">我方 上</text>

<!-- PLAYER BASE y=666 h=160 -->
<rect x="248" y="666" width="1424" height="160" fill="#0e1c28" rx="4"/>
<rect x="248" y="666" width="1424" height="160" fill="none" stroke="url(#goldH)" stroke-width="2" rx="4"/>
<text x="258" y="682" fill="#c89b3c" font-size="11" font-family="Arial" font-weight="bold" letter-spacing="2" filter="url(#glow)">BASE  基地</text>
<rect x="644" y="696" width="72" height="100" fill="#0a1620" stroke="#c89b3c" stroke-width="1" rx="3" stroke-dasharray="4,2"/>
<rect x="724" y="696" width="72" height="100" fill="#0a1620" stroke="#c89b3c" stroke-width="1" rx="3" stroke-dasharray="4,2"/>
<rect x="804" y="696" width="72" height="100" fill="#0a1620" stroke="#c89b3c" stroke-width="1" rx="3" stroke-dasharray="4,2"/>
<rect x="884" y="696" width="72" height="100" fill="#0a1620" stroke="#c89b3c" stroke-width="1" rx="3" stroke-dasharray="4,2"/>
<rect x="964" y="696" width="72" height="100" fill="#0a1620" stroke="#c89b3c" stroke-width="1" rx="3" stroke-dasharray="4,2"/>
<rect x="1044" y="696" width="72" height="100" fill="#0a1620" stroke="#c89b3c" stroke-width="1" rx="3" stroke-dasharray="4,2"/>
<rect x="1124" y="696" width="72" height="100" fill="#0a1620" stroke="#c89b3c" stroke-width="1" rx="3" stroke-dasharray="4,2"/>
<rect x="1204" y="696" width="72" height="100" fill="#0a1028" stroke="#4060a0" stroke-width="1.5" rx="3" stroke-dasharray="3,2"/>
<text x="1240" y="750" fill="#4060a0" font-size="9" text-anchor="middle" font-family="Arial" opacity="0.8">待命</text>

<!-- PLAYER RUNES y=828 h=85 -->
<rect x="248" y="828" width="1424" height="85" fill="#0c1030" rx="4"/>
<rect x="248" y="828" width="1424" height="85" fill="none" stroke="url(#purH)" stroke-width="2" rx="4"/>
<text x="258" y="844" fill="#9070e0" font-size="11" font-family="Arial" font-weight="bold" letter-spacing="2" filter="url(#glow)">RUNES  符文区</text>
<circle cx="817" cy="870" r="24" fill="#0c0e22" stroke="#7050c0" stroke-width="1.5"/>
<circle cx="843" cy="870" r="24" fill="#0c0e22" stroke="#7050c0" stroke-width="1.5"/>
<circle cx="869" cy="870" r="24" fill="#0c0e22" stroke="#7050c0" stroke-width="1.5"/>
<circle cx="895" cy="870" r="24" fill="#0c0e22" stroke="#7050c0" stroke-width="1.5"/>
<circle cx="921" cy="870" r="24" fill="#0c0e22" stroke="#7050c0" stroke-width="1.5"/>
<circle cx="947" cy="870" r="24" fill="#0c0e22" stroke="#7050c0" stroke-width="1.5"/>
<circle cx="973" cy="870" r="24" fill="#0c0e22" stroke="#7050c0" stroke-width="1.5"/>
<circle cx="999" cy="870" r="24" fill="#0c0e22" stroke="#7050c0" stroke-width="1.5"/>
<circle cx="1025" cy="870" r="24" fill="#0a0c1c" stroke="#403080" stroke-width="1" stroke-dasharray="4,2" opacity="0.5"/>
<circle cx="1051" cy="870" r="24" fill="#0a0c1c" stroke="#403080" stroke-width="1" stroke-dasharray="4,2" opacity="0.5"/>
<circle cx="1077" cy="870" r="24" fill="#0a0c1c" stroke="#403080" stroke-width="1" stroke-dasharray="4,2" opacity="0.5"/>
<circle cx="1103" cy="870" r="24" fill="#0a0c1c" stroke="#403080" stroke-width="1" stroke-dasharray="4,2" opacity="0.5"/>

<!-- PLAYER HERO ROW y=915 h=145 -->
<rect x="252" y="934" width="76" height="106" fill="#101828" stroke="#d4a828" stroke-width="2" rx="5" filter="url(#glow)"/>
<rect x="256" y="938" width="68" height="98" fill="#080e1e" stroke="#d4a82860" stroke-width="1" rx="3" stroke-dasharray="3,2"/>
<text x="290" y="983" fill="#d4a828" font-size="11" font-family="Arial" font-weight="bold" text-anchor="middle">英雄</text>
<text x="290" y="995" fill="#d4a82890" font-size="8" font-family="Arial" text-anchor="middle">CHAMPION</text>
<rect x="340" y="934" width="76" height="106" fill="#101828" stroke="#c89b3c" stroke-width="2" rx="5" filter="url(#glow)"/>
<rect x="344" y="938" width="68" height="98" fill="#080e1e" stroke="#c89b3c60" stroke-width="1" rx="3" stroke-dasharray="3,2"/>
<text x="378" y="983" fill="#c89b3c" font-size="11" font-family="Arial" font-weight="bold" text-anchor="middle">传说</text>
<text x="378" y="995" fill="#c89b3c90" font-size="8" font-family="Arial" text-anchor="middle">LEGEND</text>
<rect x="344" y="1030" width="68" height="8" fill="#201008" stroke="#c89b3c" stroke-width="1" rx="3"/>
<text x="378" y="1036" fill="#c89b3c" font-size="7" text-anchor="middle" font-family="Arial">技 能</text>
<rect x="1580" y="919" width="108" height="34" fill="#0c2240" stroke="#4090d0" stroke-width="2" rx="5" filter="url(#glow)"/>
<text x="1634" y="933" fill="#60b0f0" font-size="13" text-anchor="middle" font-family="Arial" font-weight="bold" filter="url(#glow)">结束回合</text>
<text x="1634" y="945" fill="#4090d070" font-size="7" text-anchor="middle" font-family="Arial" letter-spacing="2">END TURN</text>
<rect x="1584" y="961" width="100" height="26" fill="#080e1c" stroke="#2a5888" stroke-width="1.2" rx="4"/>
<text x="1634" y="976" fill="#3878b0" font-size="10" text-anchor="middle" font-family="Arial" font-weight="bold">召回单位</text>
<rect x="1580" y="995" width="108" height="26" fill="#080e1c" stroke="#2a5888" stroke-width="1.2" rx="4"/>
<text x="1634" y="1010" fill="#3878b0" font-size="10" text-anchor="middle" font-family="Arial" font-weight="bold">查看弃牌堆</text>

<!-- PLAYER HAND FAN -->
<text x="960" y="1058" fill="#c89b3c" font-size="9" text-anchor="middle" font-family="Arial" opacity="0.45" letter-spacing="2">HAND · 我方手牌</text>
<g transform="rotate(-14, 960, 2050)">
  <rect x="905" y="908" width="110" height="154" fill="#0c1624" stroke="#c89b3c45" stroke-width="1.2" rx="4"/>
  <line x1="919" y1="922" x2="1001" y2="1048" stroke="#c89b3c18" stroke-width="1"/>
  <line x1="1001" y1="922" x2="919" y2="1048" stroke="#c89b3c18" stroke-width="1"/>
</g>
<g transform="rotate(-9, 960, 2050)">
  <rect x="905" y="908" width="110" height="154" fill="#0c1624" stroke="#c89b3c58" stroke-width="1.3" rx="4"/>
  <line x1="919" y1="922" x2="1001" y2="1048" stroke="#c89b3c18" stroke-width="1"/>
  <line x1="1001" y1="922" x2="919" y2="1048" stroke="#c89b3c18" stroke-width="1"/>
</g>
<g transform="rotate(-5, 960, 2050)">
  <rect x="905" y="908" width="110" height="154" fill="#0c1624" stroke="#c89b3c72" stroke-width="1.4" rx="4"/>
  <line x1="919" y1="922" x2="1001" y2="1048" stroke="#c89b3c18" stroke-width="1"/>
  <line x1="1001" y1="922" x2="919" y2="1048" stroke="#c89b3c18" stroke-width="1"/>
</g>
<g transform="rotate(0, 960, 2050)">
  <rect x="905" y="908" width="110" height="154" fill="#0c1624" stroke="#c89b3cee" stroke-width="1.6" rx="4"/>
  <line x1="919" y1="922" x2="1001" y2="1048" stroke="#c89b3c18" stroke-width="1"/>
  <line x1="1001" y1="922" x2="919" y2="1048" stroke="#c89b3c18" stroke-width="1"/>
</g>
<g transform="rotate(5, 960, 2050)">
  <rect x="905" y="908" width="110" height="154" fill="#0c1624" stroke="#c89b3c72" stroke-width="1.4" rx="4"/>
  <line x1="919" y1="922" x2="1001" y2="1048" stroke="#c89b3c18" stroke-width="1"/>
  <line x1="1001" y1="922" x2="919" y2="1048" stroke="#c89b3c18" stroke-width="1"/>
</g>
<g transform="rotate(9, 960, 2050)">
  <rect x="905" y="908" width="110" height="154" fill="#0c1624" stroke="#c89b3c58" stroke-width="1.3" rx="4"/>
  <line x1="919" y1="922" x2="1001" y2="1048" stroke="#c89b3c18" stroke-width="1"/>
  <line x1="1001" y1="922" x2="919" y2="1048" stroke="#c89b3c18" stroke-width="1"/>
</g>
<g transform="rotate(14, 960, 2050)">
  <rect x="905" y="908" width="110" height="154" fill="#0c1624" stroke="#c89b3c45" stroke-width="1.2" rx="4"/>
  <line x1="919" y1="922" x2="1001" y2="1048" stroke="#c89b3c18" stroke-width="1"/>
  <line x1="1001" y1="922" x2="919" y2="1048" stroke="#c89b3c18" stroke-width="1"/>
</g>

<!-- BUTTON STRIP -->
<rect x="248" y="1062" width="1424" height="18" fill="#060e18" stroke="#304860" stroke-width="1" rx="2"/>
<text x="550" y="1075" fill="#506878" font-size="8" font-family="Arial" text-anchor="middle">法力: 3/3</text>
<text x="730" y="1075" fill="#506878" font-size="8" font-family="Arial" text-anchor="middle">符能: 2/2</text>
<text x="960" y="1075" fill="#506878" font-size="8" font-family="Arial" text-anchor="middle">阶段: 行动</text>
<text x="1190" y="1075" fill="#506878" font-size="8" font-family="Arial" text-anchor="middle">回合: 第 3 回合</text>
<text x="1380" y="1075" fill="#506878" font-size="8" font-family="Arial" text-anchor="middle">先手: 玩家</text>

<text x="960" y="1079" fill="#c89b3c" font-size="6" text-anchor="middle" font-family="Arial" opacity="0.2">FWTCG v2.3 | 1920x1080 | 英雄100+符文130+基地160+战场260+按钮18 | 手牌110x170 | 牌堆100px贴边</text>
</svg>